<svg width="836" height="437" fill="none" xmlns="http://www.w3.org/2000/svg"><path d="M351.645 8.834c-45.952 2.038-92.413 13.959-132.558 34.133-17.728 8.864-28.732 15.69-41.774 26.287-48.805 39.126-66.432 91.497-49.722 147.536 1.121 3.77 2.445 7.132 2.955 7.438.611.407.509-.612-.102-2.242-4.687-12.227-7.234-39.737-5.095-55.631 4.178-31.484 21.193-61.032 47.684-83.142 41.979-35.152 99.139-54.816 182.28-62.764 22.721-2.14 68.47-3.872 85.485-3.056 16.812.713 16.506-.408-1.019-3.465-26.083-4.483-58.994-6.419-88.134-5.094Z" fill="#D02F38"/><path d="M490.724 44.495c-12.329.407-31.178 1.528-41.978 2.343-10.699.917-20.582 1.63-21.805 1.63-4.483 0-.407 1.732 9.272 4.076 28.631 6.827 60.93 20.684 85.485 36.578 7.642 4.89 9.476 5.095 31.484 2.65 60.318-6.624 109.327-10.7 128.075-10.7 10.902 0 19.868-.407 19.868-.814 0-1.12-15.895-2.853-44.831-4.89-18.34-1.325-29.956-1.53-58.077-.816-63.477 1.325-63.681 1.325-71.322-2.038-3.668-1.528-14.876-6.215-24.963-10.392-10.087-4.076-18.442-7.948-18.646-8.457-.306-.815 21.295-1.121 70.202-1.121 38.819 0 70.303-.204 70.099-.408-.203-.305-9.577-1.63-20.785-3.056-35.661-4.483-73.156-6.012-112.078-4.585ZM335.546 55.703c-16.608 2.548-34.438 12.227-50.639 27.612-8.253 7.846-14.876 15.487-11.615 13.552.713-.51 6.928-4.382 13.755-8.763 31.076-19.766 36.68-21.906 57.975-21.702 17.117.102 34.948 3.26 54.918 9.577 10.495 3.363 13.653 4.891 15.997 7.438 1.63 1.732 2.954 3.465 2.954 3.872 0 1.834-7.743 7.132-12.43 8.559-6.725 2.037-29.344 6.215-96.081 17.728-56.243 9.782-63.681 10.903-63.681 9.578 0-.509 1.834-2.751 4.075-4.891 2.242-2.139 4.076-4.279 4.076-4.585 0-2.445-35.865 4.382-51.862 9.884-8.558 2.954-25.064 10.29-24.453 11.004.204.203 5.706-1.223 12.125-3.159 6.419-1.936 17.729-4.585 24.963-6.011 26.491-4.993 25.778-4.993 22.11.305-4.076 5.91-4.382 5.604 6.521 4.891 23.026-1.63 47.48-3.974 95.673-9.374 116.46-12.838 128.89-14.672 134.086-19.868 2.955-2.955 2.344-4.89-3.056-10.19-13.959-13.448-53.39-28.324-88.949-33.52-15.793-2.344-37.903-3.261-46.462-1.937Z" fill="#000"/><path d="M630.822 129.982c-21.601 1.019-42.998 3.26-62.356 6.724-19.869 3.465-18.544 2.853-15.793 7.031 3.871 6.011 19.257 13.653 33.827 16.913 12.125 2.751 67.349 1.019 69.284-2.139.204-.408-.815-5.299-2.445-11.004l-2.853-10.189 3.159-.612c1.732-.203 17.627-1.528 35.253-2.852 25.676-1.834 30.771-2.446 25.473-2.955-11.819-1.223-65.209-1.732-83.549-.917Z" fill="#D02F38"/><path d="M450.987 168.189c-10.393 2.242-27.103 8.967-25.778 10.291.306.204 4.076-.611 8.559-1.834 10.8-2.955 33.317-3.26 43.201-.509 3.668.917 16.404 6.623 28.325 12.43 11.921 5.91 21.906 10.699 22.11 10.699.305 0-.306-1.732-1.427-3.872-4.585-8.966-16.608-19.257-27.408-23.537-12.328-4.89-34.54-6.622-47.582-3.668Zm-241.578 18.034c-6.725 6.929-21.703 22.62-33.216 34.948-11.616 12.329-28.325 29.956-37.19 39.126l-16.098 16.71-19.869.509c-21.396.509-23.434.102-29.242-5.094-4.28-3.974-6.011 1.12-2.343 7.03 4.585 7.54 15.487 12.532 27.306 12.532 3.566 0 6.317.408 6.113.917-.611 1.732-21.804 19.767-34.03 28.937-13.857 10.494-26.594 18.34-35.254 21.804-6.725 2.751-16.812 4.993-17.83 3.974-.408-.306-.612-2.955-.408-5.706.204-5.706-1.02-6.521-4.891-3.261-1.63 1.223-2.242 2.955-2.343 6.012-.102 5.706 3.26 10.8 9.17 14.366 4.177 2.446 5.807 2.751 13.449 2.751 7.947 0 9.374-.305 16.608-3.77 19.155-9.17 39.839-25.064 73.36-56.242l12.023-11.208 13.857-1.325c7.642-.713 13.959-1.222 14.162-1.019.204.204-1.935 5.502-4.686 11.718-6.521 14.468-8.559 22.313-7.846 30.057.713 7.743 4.891 16.302 9.272 18.951 4.177 2.649 5.91 2.649 8.049.306 2.649-2.955 2.242-5.298-.917-5.298-2.649 0-2.751-.102-2.139-4.993.713-6.419 6.826-22.314 14.977-39.533 6.827-14.468 6.929-14.57 15.589-14.57 4.178 0 4.891.306 4.382 1.732-5.706 18.748-6.012 37.903-.816 48.805 1.631 3.566 1.834 3.668 6.114 3.159 2.445-.306 7.845-2.14 12.125-4.28 20.072-9.883 44.627-46.563 46.767-69.692 1.732-18.849-3.872-15.793-14.367 7.744-8.049 17.932-15.385 29.242-27.408 41.876-7.438 7.846-12.736 11.514-12.94 9.17-.407-4.075 1.427-9.781 12.023-38.514 6.012-16.2 6.521-18.136 5.502-21.397-1.121-3.77-4.279-7.336-7.438-8.456-2.751-1.019-6.419 2.751-10.902 11.411l-4.177 8.151-5.4-.611c-2.853-.306-5.401-.713-5.604-.815-.102-.102 6.113-12.736 13.958-28.122 20.276-39.838 26.695-55.427 25.065-61.744-.713-3.159-6.419-9.476-8.559-9.476-.917 0-7.234 5.604-13.958 12.43Zm-11.004 40.756c-5.502 8.661-19.155 31.382-24.963 41.775-3.159 5.603-3.566 5.909-7.132 5.909-2.14 0-6.827.306-10.393.713l-6.521.612 17.321-18.238c9.578-9.986 21.703-22.925 26.899-28.733 5.298-5.706 9.781-10.393 9.985-10.393.102 0-2.14 3.77-5.196 8.355Z" fill="#000"/><path d="M596.384 182.148c-18.238 14.672-49.926 68.266-60.93 103.316-3.464 11.106-3.872 11.819-9.374 16.811-8.151 7.54-13.144 10.903-17.83 12.329-3.668 1.121-4.178 1.019-5.808-.917-2.751-3.464-1.121-10.189 6.623-27.306 7.03-15.487 7.438-17.831 3.158-18.646-5.502-1.121-11.615 3.872-27.102 22.212-12.329 14.57-20.582 22.415-23.537 22.415-2.037 0-2.139-.305-1.528-4.686.815-6.419 9.68-22.925 17.525-32.911 9.272-11.717 18.951-18.645 28.121-19.97 5.095-.815 7.133.408 11.106 6.521 1.936 3.159 3.974 2.038 3.974-2.14 0-4.483-3.362-8.456-9.985-11.717-4.891-2.445-7.132-2.853-13.959-2.853-7.03 0-8.966.408-14.163 3.057-7.845 3.974-18.34 13.755-24.962 23.434-5.401 7.846-12.329 21.499-12.329 24.352 0 4.279-17.321 18.544-23.74 19.664-8.253 1.325-7.744-6.419 2.14-31.279 10.698-26.899 11.819-34.847 4.992-38.311-2.853-1.528-4.483-1.63-13.959-.611-24.147 2.649-26.593 2.649-36.272-.306-5.095-1.63-2.955 7.744 2.853 12.023 1.528 1.121 2.853 2.853 2.751 3.668 0 .917-1.936 5.502-4.382 10.189l-4.279 8.457-1.324-5.604c-2.65-11.921-11.208-18.748-22.314-17.831-4.789.408-6.114 1.019-8.661 3.872-3.668 4.178-2.445 5.706 2.751 3.566 4.789-2.038 8.457-.509 11.004 4.585 6.623 13.246-7.132 49.824-21.091 56.549-3.464 1.63-3.872 1.63-5.604 0-2.853-2.548-3.362-8.355-1.528-17.321 3.464-16.812 12.43-31.994 19.868-33.624 6.623-1.426 1.325-6.725-6.826-6.725-6.317-.101-9.374 1.121-14.672 5.91-5.706 5.094-10.495 12.838-13.45 21.397-2.954 8.762-5.4 12.125-14.977 20.378-11.819 10.188-18.952 13.041-21.397 8.456-2.242-4.075 4.177-21.906 19.665-55.02l7.438-15.793 7.234-.509c8.456-.611 12.838-3.464 12.328-8.151-.305-2.344-.713-2.547-6.623-2.853-3.566-.204-6.419-.713-6.419-1.121 0-.509 2.751-6.928 6.216-14.468 5.705-12.532 12.124-29.65 12.124-32.401 0-.611-1.018-1.121-2.343-1.121-4.789 0-17.423 15.386-30.771 37.394l-6.928 11.513h-6.928c-5.91 0-7.336.408-10.087 2.649-2.344 2.038-3.057 3.465-2.853 5.4.305 2.548.611 2.65 6.724 2.955 3.465.204 6.317.713 6.317 1.121 0 .509-2.751 6.521-6.113 13.449-15.589 32.503-17.219 50.028-5.604 61.643 9.883 9.884 20.582 8.457 34.031-4.381 3.668-3.566 6.725-6.419 6.827-6.419.102 0 .917 2.038 1.834 4.585 4.585 11.819 19.766 17.219 31.891 11.208 6.011-3.057 14.061-10.495 18.238-16.914 1.63-2.445 5.502-7.947 8.661-12.226 6.724-9.17 17.117-26.797 21.295-36.069l2.954-6.623h4.891c2.649 0 6.623-.306 8.661-.611l3.871-.714-4.585 9.782c-6.113 12.94-8.966 24.249-8.456 33.827.305 6.419.815 8.151 3.566 11.921 4.177 5.808 12.023 9.985 18.849 9.985 5.604 0 9.17-1.528 16.812-7.234l5.196-3.872 2.14 3.464c2.751 4.687 7.743 7.642 12.94 7.642 4.891 0 10.494-3.26 19.359-11.513l6.215-5.808 1.834 4.177c3.668 8.05 12.023 13.144 21.702 13.144 5.197 0 8.865-1.732 16.71-7.845l5.808-4.483 1.426 3.464c1.936 4.483 7.234 8.864 10.801 8.864 2.751 0 2.852-.204 3.362-6.623.917-10.29 9.985-27.815 9.985-19.053 0 2.547 5.4 13.551 8.559 17.219 3.872 4.585 12.125 8.457 18.136 8.457 6.521 0 12.023-2.853 19.359-10.291l5.909-5.909 1.427 2.751c1.936 3.668 7.438 8.762 11.819 10.902 5.706 2.955 15.283 3.26 20.582.611 5.705-2.751 14.875-10.902 19.766-17.525l3.872-5.298 1.63 6.012c2.14 7.743 3.159 9.475 8.049 13.958 5.299 4.789 11.106 6.419 17.22 4.789 5.604-1.426 9.17-3.668 16.709-11.004l5.706-5.604 1.121 4.076c2.955 10.902 12.838 15.487 22.518 10.494 2.241-1.12 7.336-5.094 11.207-8.762l7.133-6.725 1.12 2.853c1.936 5.298 6.216 9.781 11.514 12.227 10.698 4.992 20.378 2.241 31.789-9.17 6.419-6.419 16.506-20.887 19.359-27.612 3.668-8.865 1.019-7.234-15.996 9.272-16.201 15.793-23.027 20.785-28.122 20.785-6.215 0-5.604-8.355 1.834-24.657 8.151-17.831 8.763-19.665 7.132-21.601-2.139-2.649-6.52-1.935-11.411 1.834-4.483 3.363-10.189 9.578-24.352 26.492-8.049 9.679-14.264 14.875-17.626 14.875-1.733 0-1.936-.509-1.325-4.381 1.63-9.883 13.755-30.057 24.555-40.755 7.438-7.438 14.265-11.412 21.091-12.431 4.483-.713 5.095-.509 7.642 2.242 1.528 1.63 3.362 3.871 4.076 4.89 1.018 1.936 1.222 1.936 2.852.306 3.668-3.464-1.12-11.208-9.475-15.283-3.872-1.834-6.521-2.344-13.45-2.344-7.947 0-9.17.306-15.283 3.566-11.412 6.114-24.148 20.378-31.688 35.56-3.158 6.317-15.792 19.868-24.962 26.796-4.789 3.567-6.521 4.28-10.393 4.28l-4.789.102v-5.604c.102-6.521 5.706-21.295 19.155-49.926l8.355-17.83 7.336-.51c5.808-.407 7.846-1.019 9.782-2.853 5.807-5.502 4.177-8.864-4.382-8.864-3.362 0-6.113-.306-6.113-.815 0-.408 2.343-5.91 5.196-12.125 11.82-25.778 15.386-37.495 11.718-37.495-4.891 0-22.518 22.313-36.477 46.155-2.139 3.668-3.158 4.484-4.788 4.076-1.223-.306-4.585-.204-7.642.102-6.623.917-11.106 4.483-10.597 8.661.306 2.547.612 2.649 7.235 2.954 3.871.204 6.826.612 6.622 1.019-6.521 13.144-11.921 25.167-14.774 33.012l-3.668 9.985-13.347 13.042c-17.117 16.812-23.536 20.174-29.548 15.385-2.14-1.732-2.649-2.852-2.649-6.826 0-6.827 2.445-15.08 4.177-14.672.816.204 2.853.611 4.687.917 10.291 1.732 33.929-19.869 33.929-31.076 0-9.68-8.762-17.525-19.868-17.525-8.355 0-24.963 14.264-31.891 27.204-3.974 7.642-7.336 16.914-7.336 20.684 0 4.992-15.284 19.766-23.435 22.517-2.649.917-3.464.815-5.196-.611-2.649-2.547-6.623-15.385-7.947-26.491l-1.223-9.17 7.132-6.623c7.846-7.336 18.646-14.265 22.212-14.265 1.223 0 2.649.714 3.158 1.631 1.529 2.751 3.465.611 2.751-2.955-1.528-7.132-6.419-11.921-12.124-11.921-4.178 0-14.265 5.909-21.805 12.736l-7.336 6.826 4.483-9.271c2.446-5.095 10.189-20.378 17.322-34.133 17.321-33.929 20.377-41.367 16.506-41.367-.714 0-3.159 1.528-5.502 3.26Zm59.91 74.583c0 2.038-8.151 12.736-13.041 17.117-4.483 4.076-10.291 7.438-11.106 6.521-1.529-1.528 10.8-17.728 17.015-22.313 3.872-2.955 7.132-3.567 7.132-1.325Zm-439.143 88.032c-8.558 4.177-15.487 4.788-21.091 1.834-3.769-1.936-4.788-2.038-3.769-.51 1.426 2.344 11.105 6.012 15.996 6.012 7.54 0 15.284-3.974 18.136-9.476 1.427-2.547-.407-2.14-9.272 2.14Zm443.728 2.14c-4.279 4.279-54.714 18.849-89.968 26.083-22.619 4.585-58.382 9.374-91.19 12.125-9.476.815-17.423 1.732-17.627 1.936-.306.306 6.623.815 15.385 1.223 30.669 1.426 84.364-1.936 116.663-7.234 26.389-4.382 50.333-14.978 63.986-28.224 2.853-2.852 5.299-5.603 5.299-6.011 0-1.121-1.427-1.019-2.548.102Z" fill="#000"/><path d="M231.824 350.876c1.121 1.834 26.39 15.283 43.405 23.231 59.707 27.612 124.101 44.322 194.608 50.435 21.906 1.936 70.304 1.732 89.459-.408 55.224-6.215 106.066-24.351 140.097-50.027 11.616-8.763 21.703-17.627 20.989-18.34-.305-.306-3.464 1.426-7.132 3.871-39.94 26.594-92.617 43.711-159.456 51.556-46.564 5.502-97.101 4.382-144.071-3.056-59.198-9.476-111.671-25.778-161.597-50.028-8.354-4.075-15.589-7.642-16.098-7.845-.509-.306-.611 0-.204.611Z" fill="#000"/></svg>